<svg viewBox="0 0 120 32" xmlns="http://www.w3.org/2000/svg">
  <!-- S. (red) -->
  <g fill="#FF3B3B">
    <!-- S shape with brushstroke texture -->
    <path d="M8,20 Q8,22 10,23 Q12,24 14,23.5 Q16,23 16,21 Q16,19 14,18.5 Q10,17.5 8,16 Q6,14.5 6,12 Q6,9.5 8.5,8 Q11,6.5 14,7 Q17,7.5 18,10 L15,11 Q14.5,9.5 12.5,9 Q10.5,8.5 9,9.5 Q7.5,10.5 8,12 Q8.5,13.5 11,14.5 Q14,15.5 16,17 Q18,18.5 18,21 Q18,23.5 15.5,25 Q13,26.5 10,26 Q7,25.5 5.5,23 Q4,20.5 5,18 Z" stroke="#FF3B3B" stroke-width="0.5" stroke-linejoin="round"/>
    <!-- Period after S -->
    <circle cx="21" cy="24" r="1.8"/>
  </g>

  <!-- O. (white) -->
  <g fill="#FFFFFF">
    <!-- O shape with brushstroke texture -->
    <path d="M42,16 Q42,10 46,8 Q50,6 54,8 Q58,10 58,16 Q58,22 54,24 Q50,26 46,24 Q42,22 42,16 Z M45,16 Q45,11.5 47.5,10 Q50,8.5 52.5,10 Q55,11.5 55,16 Q55,20.5 52.5,22 Q50,23.5 47.5,22 Q45,20.5 45,16 Z" stroke="#FFFFFF" stroke-width="0.5" stroke-linejoin="round"/>
    <!-- Period after O -->
    <circle cx="62" cy="24" r="1.8"/>
  </g>

  <!-- S. (red) -->
  <g fill="#FF3B3B">
    <!-- S shape with brushstroke texture -->
    <path d="M73,20 Q73,22 75,23 Q77,24 79,23.5 Q81,23 81,21 Q81,19 79,18.5 Q75,17.5 73,16 Q71,14.5 71,12 Q71,9.5 73.5,8 Q76,6.5 79,7 Q82,7.5 83,10 L80,11 Q79.5,9.5 77.5,9 Q75.5,8.5 74,9.5 Q72.5,10.5 73,12 Q73.5,13.5 76,14.5 Q79,15.5 81,17 Q83,18.5 83,21 Q83,23.5 80.5,25 Q78,26.5 75,26 Q72,25.5 70.5,23 Q69,20.5 70,18 Z" stroke="#FF3B3B" stroke-width="0.5" stroke-linejoin="round"/>
    <!-- Period after S -->
    <circle cx="86" cy="24" r="1.8"/>
  </g>
</svg>
